<svg xmlns="http://www.w3.org/2000/svg" xmlns:xlink="http://www.w3.org/1999/xlink" width="168" height="168" viewBox="0 0 168 168">
  <defs>
    <clipPath id="clip-path">
      <rect id="Rectangle_8" data-name="Rectangle 8" width="86.721" height="85.396" fill="#fff"/>
    </clipPath>
  </defs>
  <g id="Groupe_19" data-name="Groupe 19" transform="translate(-1523 -1353)">
    <circle id="Ellipse_3" data-name="Ellipse 3" cx="84" cy="84" r="84" transform="translate(1523 1353)" fill="#22425a"/>
    <g id="Groupe_15" data-name="Groupe 15" transform="matrix(0.985, 0.174, -0.174, 0.985, 1571.327, 1387.546)">
      <g id="Groupe_10" data-name="Groupe 10" clip-path="url(#clip-path)">
        <path id="Tracé_36" data-name="Tracé 36" d="M22.61,32.52A15.04,15.04,0,1,0,37.65,47.56,15.057,15.057,0,0,0,22.61,32.52m0,27.458A12.418,12.418,0,1,1,35.028,47.56,12.437,12.437,0,0,1,22.61,59.978" transform="translate(2.875 12.351)" fill="#fff"/>
        <path id="Tracé_37" data-name="Tracé 37" d="M50.018,44.078l-4.236-1.173q-.269-.724-.621-1.49l2.18-3.822a1.3,1.3,0,0,0-.221-1.573l-7.216-7.2a1.3,1.3,0,0,0-1.573-.207L34.5,30.777c-.5-.221-.98-.428-1.476-.621l-1.187-4.25a1.316,1.316,0,0,0-1.269-.966H20.394a1.313,1.313,0,0,0-1.269.966l-1.187,4.236q-.745.29-1.49.621L12.639,28.6a1.314,1.314,0,0,0-1.573.207l-7.216,7.2a1.312,1.312,0,0,0-.207,1.587L5.823,41.4a15.692,15.692,0,0,0-.621,1.5L.966,44.078A1.316,1.316,0,0,0,0,45.347v10.2a1.316,1.316,0,0,0,.966,1.269L5.2,57.973c.179.5.4.993.621,1.5L3.643,63.3a1.3,1.3,0,0,0,.221,1.573l7.216,7.2a1.314,1.314,0,0,0,1.573.207l3.808-2.18q.745.352,1.49.621l1.187,4.236a1.316,1.316,0,0,0,1.269.966H30.577a1.313,1.313,0,0,0,1.269-.966l1.187-4.236c.5-.193.993-.4,1.476-.621l3.822,2.18a1.314,1.314,0,0,0,1.573-.207l7.216-7.2a1.317,1.317,0,0,0,.221-1.573l-2.18-3.836c.235-.5.442-.993.621-1.476l4.236-1.173a1.316,1.316,0,0,0,.966-1.269v-10.2a1.316,1.316,0,0,0-.966-1.269M48.362,54.537l-3.932,1.09a1.3,1.3,0,0,0-.9.855A16.311,16.311,0,0,1,42.526,58.9a1.283,1.283,0,0,0,.028,1.242l2.028,3.574-5.809,5.8-3.56-2.028a1.283,1.283,0,0,0-1.242-.028,17.747,17.747,0,0,1-2.428,1.021,1.28,1.28,0,0,0-.842.9L29.6,73.3H21.415l-1.09-3.932a1.306,1.306,0,0,0-.842-.9,18.64,18.64,0,0,1-2.456-1.035,1.321,1.321,0,0,0-1.242.041l-3.546,2.015L6.43,63.7l2.028-3.56A1.282,1.282,0,0,0,8.486,58.9a19.621,19.621,0,0,1-1.035-2.47,1.327,1.327,0,0,0-.9-.855L2.622,54.5V46.341l3.932-1.09a1.3,1.3,0,0,0,.9-.855,17.77,17.77,0,0,1,1.035-2.47,1.321,1.321,0,0,0-.041-1.242L6.43,37.151l5.809-5.8,3.546,2.015a1.256,1.256,0,0,0,1.228.028,18.64,18.64,0,0,1,2.456-1.035,1.28,1.28,0,0,0,.842-.9l1.09-3.932h8.182l1.1,3.946a1.333,1.333,0,0,0,.842.9A22.67,22.67,0,0,1,33.985,33.4a1.293,1.293,0,0,0,1.228-.041l3.56-2.015,5.809,5.8-2.028,3.546a1.282,1.282,0,0,0-.028,1.242,18.651,18.651,0,0,1,1.007,2.428,1.318,1.318,0,0,0,.9.869l3.932,1.09v8.224" transform="translate(0 9.472)" fill="#fff"/>
        <path id="Tracé_38" data-name="Tracé 38" d="M25.6,39.675l-7.837,7.837-2.387-2.387a1.317,1.317,0,0,0-1.863,1.863l3.325,3.325a1.3,1.3,0,0,0,.924.386,1.273,1.273,0,0,0,.924-.386l8.762-8.762a1.324,1.324,0,0,0,0-1.863,1.3,1.3,0,0,0-1.849-.014" transform="translate(4.988 14.924)" fill="#fff"/>
        <path id="Tracé_39" data-name="Tracé 39" d="M72.915,15.771A18.134,18.134,0,0,0,64.222.207C64.181.179,64.139.179,64.1.152S64.029.11,63.988.1a1.578,1.578,0,0,0-.442-.1h-.014c-.014,0-.028.014-.041.014a.99.99,0,0,0-.4.083c-.041.014-.069.028-.11.041s-.055.014-.083.028a1.151,1.151,0,0,0-.29.221L62.58.414a1.52,1.52,0,0,0-.235.345c-.014.041-.028.069-.041.11a1.22,1.22,0,0,0-.1.455V14.778L54.619,19.69,47.03,14.778V1.3a1.47,1.47,0,0,0-.083-.428.49.49,0,0,0-.055-.124,1.071,1.071,0,0,0-.221-.331C46.657.4,46.657.386,46.643.373a1.312,1.312,0,0,0-.276-.207c-.028-.014-.055-.014-.083-.028A.951.951,0,0,1,46.174.1a1.292,1.292,0,0,0-.4-.083C45.76.014,45.747,0,45.733,0h-.014a1.208,1.208,0,0,0-.442.1c-.041.014-.069.028-.11.041a.49.49,0,0,0-.124.055A18.181,18.181,0,0,0,36.35,15.757a18.376,18.376,0,0,0,9.672,16.13L44.1,73.061a10.539,10.539,0,1,0,21.056,0L63.242,31.887a18.339,18.339,0,0,0,9.672-16.116M61.325,29.928a1.288,1.288,0,0,0-.745,1.242l1.959,42.015a7.9,7.9,0,0,1-13.6,5.837,7.806,7.806,0,0,1-2.18-5.837L48.713,31.17a1.31,1.31,0,0,0-.745-1.242,15.75,15.75,0,0,1-8.955-14.157A15.543,15.543,0,0,1,44.449,3.9v11.6a1.306,1.306,0,0,0,.607,1.1l8.9,5.754a1.323,1.323,0,0,0,1.421,0l8.9-5.754a1.34,1.34,0,0,0,.607-1.1V3.919a15.565,15.565,0,0,1,5.436,11.866,15.808,15.808,0,0,1-9,14.143" transform="translate(13.806)" fill="#fff"/>
        <path id="Tracé_40" data-name="Tracé 40" d="M51.2,48.62a5.8,5.8,0,1,0,5.8,5.8,5.8,5.8,0,0,0-5.8-5.8m0,8.955a3.16,3.16,0,1,1,3.16-3.16,3.168,3.168,0,0,1-3.16,3.16" transform="translate(17.243 18.466)" fill="#fff"/>
      </g>
    </g>
  </g>
</svg>
