<svg xmlns="http://www.w3.org/2000/svg" width="144" height="144" viewBox="0 0 144 144">
  <g id="logo-mclimatic" transform="translate(-1.3 -0.45)">
    <g id="Groupe_1" data-name="Groupe 1" transform="translate(1.3 73.728)">
      <path id="Tracé_1" data-name="Tracé 1" d="M21.3,108.8a.1.1,0,0,1-.1.1,17.249,17.249,0,0,1-6.9,1.5c-6.3,0-13-3.3-13-10.5,0-9.3,8.6-11.3,12.8-11.3a23.5,23.5,0,0,1,7.1,1.2c.1,0,.1.1.1.2l.3,3.9a.215.215,0,0,1-.2.2h-.1a18.519,18.519,0,0,0-7.2-1.5c-4.8,0-9.2,3-9.2,7.3,0,5.2,6.1,6.5,9.4,6.5a15.3,15.3,0,0,0,7.1-2.1h.1a.215.215,0,0,1,.2.2Z" transform="translate(-1.3 -88.6)" fill="#1c1b19"/>
      <path id="Tracé_2" data-name="Tracé 2" d="M27.1,110c-.1,0-.2-.1-.2-.3V89.5c0-.1.1-.3.2-.3h3.2c.1,0,.2.1.2.3v16.4c0,.1.1.3.2.3H45.6a.215.215,0,0,1,.2.2l-1,3.6c0,.1-.1.1-.2.1H27.1Z" transform="translate(-5.246 -88.6)" fill="#1c1b19"/>
      <path id="Tracé_3" data-name="Tracé 3" d="M50.4,110a.215.215,0,0,1-.2-.2V89.4a.215.215,0,0,1,.2-.2h3.3a.215.215,0,0,1,.2.2v20.4a.215.215,0,0,1-.2.2Z" transform="translate(-8.136 -88.6)" fill="#1c1b19"/>
      <path id="Tracé_4" data-name="Tracé 4" d="M81.4,89.2H84a.265.265,0,0,1,.3.3v20.2a.265.265,0,0,1-.3.3H81a.265.265,0,0,1-.3-.3V96.4a.1.1,0,0,0-.1-.1h-.1L73.1,106c-.1.1-.1.1-.2.1H71.3a.349.349,0,0,1-.2-.1l-7.4-9.7h-.1c-.1,0-.1,0-.1.1v13.3a.265.265,0,0,1-.3.3h-3a.265.265,0,0,1-.3-.3V89.5a.265.265,0,0,1,.3-.3h2.6a.349.349,0,0,1,.2.1l9.1,11.9h.1l9-11.9C81.2,89.2,81.3,89.2,81.4,89.2Z" transform="translate(-10.683 -88.6)" fill="#1c1b19"/>
      <path id="Tracé_5" data-name="Tracé 5" d="M108.2,109.9l-1.6-3.4c0-.1-.1-.1-.2-.1H94.8c-.1,0-.1.1-.2.1L93,109.9c-.1.1-.1.1-.2.1H89.2c-.2,0-.3-.2-.2-.3l9.4-20.4c.1-.1.1-.1.2-.1h3.9a.349.349,0,0,1,.2.1l9.4,20.4c.1.1-.1.3-.2.3h-3.6C108.3,110.1,108.2,110,108.2,109.9Zm-11.6-7.5h7.9c.1,0,.2-.1.1-.2l-4-8.6c0-.1-.1-.1-.1,0l-4,8.6A.349.349,0,0,0,96.6,102.4Z" transform="translate(-15.215 -88.6)" fill="#1c1b19"/>
      <path id="Tracé_6" data-name="Tracé 6" d="M133.2,89.3l1.1,3.3c0,.1,0,.1-.1.1H125l-.1.1v17.1a.349.349,0,0,1-.1.2h-3.3c-.1,0-.1-.1-.1-.2V92.8l-.1-.1h-9.2c-.1,0-.1,0-.1-.1l1.1-3.3c0-.1,0-.1.1-.1l20,.1Z" transform="translate(-18.767 -88.6)" fill="#1c1b19"/>
      <path id="Tracé_7" data-name="Tracé 7" d="M138.8,110a.215.215,0,0,1-.2-.2V89.4a.215.215,0,0,1,.2-.2h3.3a.215.215,0,0,1,.2.2v20.4a.215.215,0,0,1-.2.2Z" transform="translate(-24.1 -88.6)" fill="#1c1b19"/>
      <path id="Tracé_8" data-name="Tracé 8" d="M167.7,108.8a.1.1,0,0,1-.1.1,17.249,17.249,0,0,1-6.9,1.5c-6.3,0-13-3.3-13-10.5,0-9.3,8.6-11.3,12.8-11.3a23.5,23.5,0,0,1,7.1,1.2c.1,0,.1.1.1.2l.3,3.9a.215.215,0,0,1-.2.2h-.1a18.519,18.519,0,0,0-7.2-1.5c-4.8,0-9.2,3-9.2,7.3,0,5.2,6.2,6.5,9.4,6.5a15.3,15.3,0,0,0,7.1-2.1h.1a.215.215,0,0,1,.2.2Z" transform="translate(-24.1 -88.6)" fill="#1c1b19"/>
    </g>
    <g id="Groupe_2" data-name="Groupe 2" transform="translate(2.4 0.45)">
      <path id="Tracé_9" data-name="Tracé 9" d="M2.4,52.4A55.515,55.515,0,0,1,7.9,37a63.722,63.722,0,0,1,9.6-13.5A64.363,64.363,0,0,1,30.1,12.8,51.534,51.534,0,0,1,45,6c-4.4,3.3-8.6,6.5-12.6,9.9A145.381,145.381,0,0,0,21.1,26.8a144.848,144.848,0,0,0-9.9,12.1C8.1,43.3,5.3,47.7,2.4,52.4Z" transform="translate(-2.4 -0.45)" fill="#22425a"/>
      <path id="Tracé_10" data-name="Tracé 10" d="M49.2,4.1a6.238,6.238,0,0,1,.7-2.4A3.339,3.339,0,0,1,51.2.6a2.466,2.466,0,0,1,1.7,0A4.992,4.992,0,0,1,55,1.9a4.5,4.5,0,0,1-.8,2.4,2.245,2.245,0,0,1-1.2,1,2.2,2.2,0,0,1-1.6,0A3.745,3.745,0,0,1,49.2,4.1Z" transform="translate(-2.4 -0.45)" fill="#22425a"/>
    </g>
    <g id="Groupe_12" data-name="Groupe 12" transform="translate(49.274 22.302)">
      <g id="Groupe_3" data-name="Groupe 3" transform="translate(1.1 1.1)">
        <path id="Tracé_11" data-name="Tracé 11" d="M109.9,23.8v48H98V50.7L85.9,62.8,73.8,50.7h0L61.9,38.8v-15h1.9L85.9,46,108,23.9h1.9Zm-48,20.4L73.8,56.1V71.8H61.9Z" transform="translate(-61.9 -23.8)" fill="#1c1b19"/>
      </g>
      <g id="Groupe_7" data-name="Groupe 7">
        <g id="Groupe_6" data-name="Groupe 6">
          <g id="Groupe_5" data-name="Groupe 5">
            <g id="Groupe_4" data-name="Groupe 4">
              <path id="Tracé_12" data-name="Tracé 12" d="M108.8,22.7v48H96.9V49.6L84.8,61.7,72.7,49.6h0L60.8,37.7v-15h1.9L84.8,44.8l22.1-22.1h1.9Z" transform="translate(-60.8 -22.7)" fill="#c43633"/>
            </g>
          </g>
        </g>
      </g>
      <g id="Groupe_11" data-name="Groupe 11" transform="translate(0 20.4)">
        <g id="Groupe_10" data-name="Groupe 10">
          <g id="Groupe_9" data-name="Groupe 9">
            <g id="Groupe_8" data-name="Groupe 8">
              <path id="Tracé_13" data-name="Tracé 13" d="M60.8,43.1,72.7,55V70.7H60.8Z" transform="translate(-60.8 -43.1)" fill="#22425a"/>
            </g>
          </g>
        </g>
      </g>
    </g>
    <g id="Groupe_16" data-name="Groupe 16" transform="translate(85.9 94.5)">
      <g id="Groupe_15" data-name="Groupe 15">
        <g id="Groupe_13" data-name="Groupe 13" transform="translate(10.1)">
          <path id="Tracé_14" data-name="Tracé 14" d="M163.2,119.3a56.948,56.948,0,0,1-6.1,15.2A64.466,64.466,0,0,1,147,147.6a67.214,67.214,0,0,1-13,10.2,51.778,51.778,0,0,1-15.2,6.2c4.5-3.1,8.8-6.2,12.9-9.5A145.946,145.946,0,0,0,143.4,144a144.751,144.751,0,0,0,10.4-11.7C157.1,128.2,160.1,123.8,163.2,119.3Z" transform="translate(-118.8 -119.3)" fill="#c43434"/>
        </g>
        <g id="Groupe_14" data-name="Groupe 14" transform="translate(0 44.95)">
          <path id="Tracé_15" data-name="Tracé 15" d="M114.6,165.7a4.843,4.843,0,0,1-.8,2.4,2.43,2.43,0,0,1-1.3,1,2.479,2.479,0,0,1-1.7,0,5.424,5.424,0,0,1-2.1-1.4,4.992,4.992,0,0,1,.9-2.3,3.051,3.051,0,0,1,1.3-1,2.2,2.2,0,0,1,1.6,0A4.992,4.992,0,0,1,114.6,165.7Z" transform="translate(-108.7 -164.25)" fill="#c43434"/>
        </g>
      </g>
    </g>
    <g id="Groupe_20" data-name="Groupe 20" transform="translate(5.861 98.1)">
      <g id="Groupe_19" data-name="Groupe 19">
        <g id="Groupe_17" data-name="Groupe 17" transform="translate(6.339 9.3)">
          <path id="Tracé_16" data-name="Tracé 16" d="M63.3,168.9a55.414,55.414,0,0,1-16-3.6,68.036,68.036,0,0,1-14.5-7.9,64.388,64.388,0,0,1-12.1-11.2,51.445,51.445,0,0,1-8.5-14c3.8,3.9,7.5,7.7,11.4,11.3a146.346,146.346,0,0,0,12.2,9.9c4.2,3,8.7,5.8,13.2,8.4C53.5,164.3,58.3,166.5,63.3,168.9Z" transform="translate(-12.2 -132.2)" fill="#22425a"/>
        </g>
        <g id="Groupe_18" data-name="Groupe 18">
          <path id="Tracé_17" data-name="Tracé 17" d="M9.8,128.3a4.352,4.352,0,0,1-2.5-.4,2.606,2.606,0,0,1-1.2-1.1,2.851,2.851,0,0,1-.2-1.6A5.214,5.214,0,0,1,7,122.9a4.51,4.51,0,0,1,2.4.5,2.585,2.585,0,0,1,1.2,1.1,2.615,2.615,0,0,1,.2,1.6A11.952,11.952,0,0,1,9.8,128.3Z" transform="translate(-5.861 -122.9)" fill="#22425a"/>
        </g>
      </g>
    </g>
    <g id="Groupe_24" data-name="Groupe 24" transform="translate(87.1 1.7)">
      <g id="Groupe_23" data-name="Groupe 23">
        <g id="Groupe_21" data-name="Groupe 21">
          <path id="Tracé_18" data-name="Tracé 18" d="M109.9,1.7a54.252,54.252,0,0,1,15.7,4.5,63.1,63.1,0,0,1,14,8.7,68.147,68.147,0,0,1,11.5,11.9,52.908,52.908,0,0,1,7.8,14.4c-3.6-4.1-7-8.1-10.7-11.9a114.538,114.538,0,0,0-11.6-10.5,128.728,128.728,0,0,0-12.8-9.1C119.4,6.8,114.7,4.3,109.9,1.7Z" transform="translate(-109.9 -1.7)" fill="#c43434"/>
        </g>
        <g id="Groupe_22" data-name="Groupe 22" transform="translate(50.091 43.5)">
          <path id="Tracé_19" data-name="Tracé 19" d="M161.1,45.2a4.511,4.511,0,0,1,2.4.5,2.779,2.779,0,0,1,1.2,1.2,3.085,3.085,0,0,1,.2,1.7,4.4,4.4,0,0,1-1.2,2.2,5.918,5.918,0,0,1-2.4-.6,2.545,2.545,0,0,1-1.1-1.2,2.145,2.145,0,0,1-.1-1.6A3.78,3.78,0,0,1,161.1,45.2Z" transform="translate(-159.991 -45.2)" fill="#c43434"/>
        </g>
      </g>
    </g>
  </g>
</svg>
