<?xml version="1.0" encoding="utf-8"?>
<!-- Generator: $$$/GeneralStr/196=Adobe Illustrator 27.6.0, SVG Export Plug-In . SVG Version: 6.00 Build 0)  -->
<svg version="1.1" id="Calque_1" xmlns="http://www.w3.org/2000/svg" xmlns:xlink="http://www.w3.org/1999/xlink" x="0px" y="0px"
	 viewBox="0 0 170 170" style="enable-background:new 0 0 170 170;" xml:space="preserve">
<style type="text/css">
	.st0{fill:#1C1B19;}
	.st1{fill:#22425A;}
	.st2{fill:#C43633;}
	.st3{fill:#C43434;}
</style>
<g>
	<g>
		<path class="st0" d="M21.3,108.8c0,0.1-0.1,0.1-0.1,0.1c-1.6,0.7-4,1.5-6.9,1.5c-6.3,0-13-3.3-13-10.5c0-9.3,8.6-11.3,12.8-11.3
			c3,0,5.5,0.7,7.1,1.2c0.1,0,0.1,0.1,0.1,0.2l0.3,3.9c0,0.1-0.1,0.2-0.2,0.2c0,0-0.1,0-0.1,0c-0.9-0.4-3.7-1.5-7.2-1.5
			c-4.8,0-9.2,3-9.2,7.3c0,5.2,6.1,6.5,9.4,6.5c3.2,0,6-1.5,7.1-2.1c0,0,0.1,0,0.1,0c0.1,0,0.2,0.1,0.2,0.2L21.3,108.8z"/>
		<path class="st0" d="M27.1,110c-0.1,0-0.2-0.1-0.2-0.3V89.5c0-0.1,0.1-0.3,0.2-0.3h3.2c0.1,0,0.2,0.1,0.2,0.3v16.4
			c0,0.1,0.1,0.3,0.2,0.3h14.9c0.1,0,0.2,0.1,0.2,0.2l-1,3.6c0,0.1-0.1,0.1-0.2,0.1H27.1z"/>
		<path class="st0" d="M50.4,110c-0.1,0-0.2-0.1-0.2-0.2V89.4c0-0.1,0.1-0.2,0.2-0.2h3.3c0.1,0,0.2,0.1,0.2,0.2v20.4
			c0,0.1-0.1,0.2-0.2,0.2H50.4z"/>
		<path class="st0" d="M81.4,89.2H84c0.2,0,0.3,0.1,0.3,0.3v20.2c0,0.2-0.1,0.3-0.3,0.3H81c-0.2,0-0.3-0.1-0.3-0.3V96.4
			c0-0.1-0.1-0.1-0.1-0.1c0,0-0.1,0-0.1,0l-7.4,9.7c-0.1,0.1-0.1,0.1-0.2,0.1h-1.6c-0.1,0-0.2-0.1-0.2-0.1l-7.4-9.7c0,0-0.1,0-0.1,0
			c-0.1,0-0.1,0-0.1,0.1v13.3c0,0.2-0.1,0.3-0.3,0.3h-3c-0.2,0-0.3-0.1-0.3-0.3V89.5c0-0.2,0.1-0.3,0.3-0.3h2.6
			c0.1,0,0.2,0.1,0.2,0.1l9.1,11.9c0,0,0.1,0,0.1,0l9-11.9C81.2,89.2,81.3,89.2,81.4,89.2z"/>
		<path class="st0" d="M108.2,109.9l-1.6-3.4c0-0.1-0.1-0.1-0.2-0.1H94.8c-0.1,0-0.1,0.1-0.2,0.1l-1.6,3.4c-0.1,0.1-0.1,0.1-0.2,0.1
			h-3.6c-0.2,0-0.3-0.2-0.2-0.3l9.4-20.4c0.1-0.1,0.1-0.1,0.2-0.1h3.9c0.1,0,0.2,0.1,0.2,0.1l9.4,20.4c0.1,0.1-0.1,0.3-0.2,0.3h-3.6
			C108.3,110.1,108.2,110,108.2,109.9z M96.6,102.4h7.9c0.1,0,0.2-0.1,0.1-0.2l-4-8.6c0-0.1-0.1-0.1-0.1,0l-4,8.6
			C96.5,102.3,96.6,102.4,96.6,102.4z"/>
		<path class="st0" d="M133.2,89.3l1.1,3.3c0,0.1,0,0.1-0.1,0.1h-9.2c0,0-0.1,0.1-0.1,0.1v17.1c0,0.1-0.1,0.2-0.1,0.2h-3.3
			c-0.1,0-0.1-0.1-0.1-0.2V92.8c0,0-0.1-0.1-0.1-0.1h-9.2c-0.1,0-0.1,0-0.1-0.1l1.1-3.3c0-0.1,0-0.1,0.1-0.1L133.2,89.3
			C133.2,89.2,133.2,89.2,133.2,89.3z"/>
		<path class="st0" d="M138.8,110c-0.1,0-0.2-0.1-0.2-0.2V89.4c0-0.1,0.1-0.2,0.2-0.2h3.3c0.1,0,0.2,0.1,0.2,0.2v20.4
			c0,0.1-0.1,0.2-0.2,0.2H138.8z"/>
		<path class="st0" d="M167.7,108.8c0,0.1-0.1,0.1-0.1,0.1c-1.6,0.7-4,1.5-6.9,1.5c-6.3,0-13-3.3-13-10.5c0-9.3,8.6-11.3,12.8-11.3
			c3,0,5.5,0.7,7.1,1.2c0.1,0,0.1,0.1,0.1,0.2l0.3,3.9c0,0.1-0.1,0.2-0.2,0.2c0,0-0.1,0-0.1,0c-0.9-0.4-3.7-1.5-7.2-1.5
			c-4.8,0-9.2,3-9.2,7.3c0,5.2,6.2,6.5,9.4,6.5c3.2,0,6-1.5,7.1-2.1c0,0,0.1,0,0.1,0c0.1,0,0.2,0.1,0.2,0.2L167.7,108.8z"/>
	</g>
	<g>
		<path class="st1" d="M2.4,52.4c1-5.4,3-10.6,5.5-15.4c2.6-4.9,5.8-9.4,9.6-13.5c3.7-4.1,8-7.7,12.6-10.7c4.6-3,9.6-5.4,14.9-6.8
			c-4.4,3.3-8.6,6.5-12.6,9.9c-4,3.4-7.7,7.1-11.3,10.9c-3.5,3.8-6.8,7.9-9.9,12.1C8.1,43.3,5.3,47.7,2.4,52.4z"/>
		<path class="st1" d="M49.2,4.1c0.1-1.1,0.4-1.8,0.7-2.4c0.4-0.5,0.8-0.9,1.3-1.1c0.5-0.2,1-0.2,1.7,0c0.6,0.2,1.3,0.5,2.1,1.3
			c-0.1,1.2-0.4,1.8-0.8,2.4c-0.3,0.5-0.8,0.9-1.2,1c-0.5,0.2-1,0.2-1.6,0C50.7,5.2,50,4.9,49.2,4.1z"/>
	</g>
	<g>
		<g>
			<path class="st0" d="M109.9,23.8v48H98V50.7L85.9,62.8L73.8,50.7v0L61.9,38.8v-15h1.9L85.9,46l22.1-22.1H109.9z M61.9,44.2
				l11.9,11.9v15.7H61.9V44.2z"/>
		</g>
		<g>
			<g>
				<g>
					<g>
						<path class="st2" d="M108.8,22.7v48H96.9V49.6L84.8,61.7L72.7,49.6v0L60.8,37.7v-15h1.9l22.1,22.1l22.1-22.1H108.8z"/>
					</g>
				</g>
			</g>
		</g>
		<g>
			<g>
				<g>
					<g>
						<path class="st1" d="M60.8,43.1L72.7,55v15.7H60.8V43.1z"/>
					</g>
				</g>
			</g>
		</g>
	</g>
	<g>
		<g>
			<g>
				<path class="st3" d="M163.2,119.3c-1.2,5.3-3.4,10.4-6.1,15.2c-2.8,4.8-6.2,9.2-10.1,13.1c-3.9,3.9-8.3,7.4-13,10.2
					c-4.7,2.8-9.8,5-15.2,6.2c4.5-3.1,8.8-6.2,12.9-9.5c4.1-3.3,8-6.8,11.7-10.5c3.7-3.7,7.1-7.6,10.4-11.7
					C157.1,128.2,160.1,123.8,163.2,119.3z"/>
			</g>
			<g>
				<path class="st3" d="M114.6,165.7c-0.1,1.1-0.4,1.8-0.8,2.4c-0.4,0.5-0.8,0.9-1.3,1c-0.5,0.2-1.1,0.2-1.7,0
					c-0.6-0.2-1.3-0.6-2.1-1.4c0.2-1.1,0.5-1.8,0.9-2.3c0.4-0.5,0.8-0.8,1.3-1c0.5-0.2,1-0.2,1.6,0
					C113.1,164.6,113.8,164.9,114.6,165.7z"/>
			</g>
		</g>
	</g>
	<g>
		<g>
			<g>
				<path class="st1" d="M63.3,168.9c-5.5-0.3-10.8-1.7-16-3.6c-5.1-2-10-4.7-14.5-7.9c-4.5-3.2-8.6-7-12.1-11.2
					c-3.5-4.2-6.5-8.9-8.5-14c3.8,3.9,7.5,7.7,11.4,11.3c3.9,3.5,7.9,6.8,12.2,9.9c4.2,3,8.7,5.8,13.2,8.4
					C53.5,164.3,58.3,166.5,63.3,168.9z"/>
			</g>
			<g>
				<path class="st1" d="M9.8,128.3c-1.2,0.1-1.9-0.1-2.5-0.4c-0.6-0.3-1-0.7-1.2-1.1c-0.2-0.5-0.3-1-0.2-1.6
					c0.1-0.6,0.4-1.4,1.1-2.3c1.2,0,1.9,0.2,2.4,0.5c0.6,0.3,0.9,0.6,1.2,1.1c0.2,0.4,0.3,0.9,0.2,1.6
					C10.6,126.6,10.4,127.3,9.8,128.3z"/>
			</g>
		</g>
	</g>
	<g>
		<g>
			<g>
				<path class="st3" d="M109.9,1.7c5.4,0.6,10.7,2.3,15.7,4.5c5,2.3,9.8,5.2,14,8.7c4.3,3.5,8.2,7.5,11.5,11.9
					c3.3,4.4,6,9.2,7.8,14.4c-3.6-4.1-7-8.1-10.7-11.9c-3.7-3.8-7.5-7.3-11.6-10.5c-4.1-3.3-8.3-6.3-12.8-9.1
					C119.4,6.8,114.7,4.3,109.9,1.7z"/>
			</g>
			<g>
				<path class="st3" d="M161.1,45.2c1.2,0,1.9,0.2,2.4,0.5c0.6,0.3,0.9,0.7,1.2,1.2c0.2,0.5,0.3,1,0.2,1.7
					c-0.1,0.6-0.4,1.3-1.2,2.2c-1.2-0.1-1.8-0.3-2.4-0.6c-0.5-0.3-0.9-0.7-1.1-1.2c-0.2-0.4-0.3-1-0.1-1.6
					C160.1,46.8,160.4,46.1,161.1,45.2z"/>
			</g>
		</g>
	</g>
</g>
</svg>
