<svg xmlns="http://www.w3.org/2000/svg" xmlns:xlink="http://www.w3.org/1999/xlink" width="61.416" height="89.999" viewBox="0 0 61.416 89.999">
  <defs>
    <clipPath id="clip-path">
      <rect id="Rectangle_9" data-name="Rectangle 9" width="61.416" height="89.999" transform="translate(0 0)" fill="#22425a"/>
    </clipPath>
  </defs>
  <g id="Groupe_13" data-name="Groupe 13" transform="translate(0 0)">
    <g id="Groupe_12" data-name="Groupe 12" clip-path="url(#clip-path)">
      <path id="Tracé_41" data-name="Tracé 41" d="M30.789.08,28.708,0a1.861,1.861,0,0,0-.89.19C12.467,1.38,1.489,12.048.135,27.575c-.021.237-.04.475-.054.714l0,.03c-.017.266-.032.533-.045.843Q0,29.966,0,30.787H0A32.846,32.846,0,0,0,3.629,45.8c0,.005.585,1.034.96,1.743a1.971,1.971,0,0,0,.106.177c.208.307.358.554.5.787s.281.459.444.7L28.777,89.046A1.916,1.916,0,0,0,30.423,90h.01a1.916,1.916,0,0,0,1.646-.935l23.7-39.859c.079-.118.155-.237.232-.357l.752-1.157c.027-.041.051-.082.075-.125l.449-.82a32.946,32.946,0,0,0,4.128-15.96C61.415,12.733,48.825.118,30.789.08M53.934,44.9l-.419.765-.732,1.127c-.068.107-.136.213-.206.317-.022.031-.042.063-.061.1l-22.064,37.1L8.918,47.233c-.022-.038-.045-.075-.07-.112-.144-.213-.26-.4-.385-.608-.155-.255-.32-.524-.538-.85-.379-.712-.913-1.657-.926-1.676l0,0a29.054,29.054,0,0,1-3.17-13.2c0-.494.011-.983.032-1.505.01-.238.024-.475.038-.71,0-.011,0-.022,0-.034.013-.212.03-.422.054-.724C5.224,13.3,15.714,3.918,30.684,3.908l2.021.076h.073c.019,0,.036,0,.054,0,14.894.914,24.753,11.45,24.753,26.807A29.129,29.129,0,0,1,53.934,44.9" fill="#22425a"/>
      <path id="Tracé_42" data-name="Tracé 42" d="M30.776,11.777A17.693,17.693,0,0,0,14.195,23.438c-.088.245-.173.493-.249.739l-.045.159c-.067.225-.133.45-.191.678l-.054.234c-.05.2-.1.408-.141.619l-.066.364c-.03.162-.061.324-.087.5l-.067.52c-.016.117-.031.234-.043.353-.014.137-.023.274-.033.412l-.009.131c0,.006-.007.1-.008.107l-.016.236c-.016.3-.023.6-.023.906s.007.606.022.893l.03.426c.01.158.022.316.038.481l.066.531c.014.114.028.228.043.332.019.125.041.249.064.373l.091.5c.03.148.065.3.1.441l.1.41c.048.185.1.367.18.637l.054.187c.068.221.143.44.23.686.005.017.037.109.043.125.087.242.183.48.273.7.008.022.031.079.04.1.1.237.2.471.325.726.007.016.014.032.022.048a17.616,17.616,0,1,0,15.9-25.212m0,31.4a13.866,13.866,0,0,1-12.43-7.818l-.014-.03c-.094-.2-.185-.4-.259-.573-.007-.019-.029-.073-.036-.091-.076-.183-.15-.367-.227-.581,0-.011-.029-.084-.032-.095-.06-.171-.119-.341-.194-.59l-.044-.155c-.042-.142-.084-.283-.118-.416l-.081-.352c-.025-.106-.051-.212-.072-.312L17.061,30.8c-.012-.115-.019-.232-.027-.348l-.026-.356q-.018-.349-.018-.7c0-.237.006-.471.019-.717l.138-1.373c.019-.122.042-.243.079-.442l.042-.239c.032-.158.071-.314.111-.481,0-.012.038-.169.041-.18.045-.179.1-.354.15-.531,0,0,.031-.113.033-.117.061-.2.127-.39.214-.635a13.787,13.787,0,1,1,12.959,18.5" fill="#22425a"/>
    </g>
  </g>
</svg>
