<svg xmlns="http://www.w3.org/2000/svg" xmlns:xlink="http://www.w3.org/1999/xlink" width="168" height="168" viewBox="0 0 168 168">
  <defs>
    <clipPath id="clip-path">
      <rect id="Rectangle_2" data-name="Rectangle 2" width="101.467" height="95.472" fill="#fff"/>
    </clipPath>
  </defs>
  <g id="Groupe_18" data-name="Groupe 18" transform="translate(-1523 -763)">
    <circle id="Ellipse_1" data-name="Ellipse 1" cx="84" cy="84" r="84" transform="translate(1523 763)" fill="#22425a"/>
    <g id="Groupe_5" data-name="Groupe 5" transform="translate(1154.143 88.408)">
      <g id="Groupe_4" data-name="Groupe 4" transform="translate(401.857 710.592)">
        <g id="Groupe_3" data-name="Groupe 3" clip-path="url(#clip-path)">
          <path id="Tracé_20" data-name="Tracé 20" d="M23.107,45.973A11.128,11.128,0,1,0,34.235,57.1,11.133,11.133,0,0,0,23.107,45.973m0,3.179A7.949,7.949,0,1,1,15.158,57.1a7.954,7.954,0,0,1,7.949-7.949" transform="translate(-2.44 -9.366)" fill="#fff" fill-rule="evenodd"/>
          <path id="Tracé_21" data-name="Tracé 21" d="M1.59,61.132H4.77a1.59,1.59,0,0,0,0-3.18H1.59a1.59,1.59,0,1,0,0,3.18" transform="translate(0 -11.806)" fill="#fff" fill-rule="evenodd"/>
          <path id="Tracé_22" data-name="Tracé 22" d="M5.594,72.489,8.347,70.9a1.59,1.59,0,1,0-1.589-2.754L4,69.736a1.59,1.59,0,1,0,1.589,2.754" transform="translate(-0.654 -13.839)" fill="#fff" fill-rule="evenodd"/>
          <path id="Tracé_23" data-name="Tracé 23" d="M14.945,80.379l1.589-2.754a1.59,1.59,0,1,0-2.754-1.589L12.191,78.79a1.59,1.59,0,0,0,2.754,1.589" transform="translate(-2.44 -15.328)" fill="#fff" fill-rule="evenodd"/>
          <path id="Tracé_24" data-name="Tracé 24" d="M27.138,82.686v-3.18a1.59,1.59,0,0,0-3.18,0v3.18a1.59,1.59,0,0,0,3.18,0" transform="translate(-4.881 -15.873)" fill="#fff" fill-rule="evenodd"/>
          <path id="Tracé_25" data-name="Tracé 25" d="M38.5,78.789l-1.589-2.754a1.59,1.59,0,1,0-2.754,1.589l1.589,2.754A1.59,1.59,0,1,0,38.5,78.789" transform="translate(-6.914 -15.328)" fill="#fff" fill-rule="evenodd"/>
          <path id="Tracé_26" data-name="Tracé 26" d="M46.385,69.738l-2.754-1.589A1.59,1.59,0,1,0,42.043,70.9L44.8,72.491a1.59,1.59,0,0,0,1.589-2.754" transform="translate(-8.403 -13.84)" fill="#fff" fill-rule="evenodd"/>
          <path id="Tracé_27" data-name="Tracé 27" d="M45.512,61.132h3.18a1.59,1.59,0,0,0,0-3.18h-3.18a1.59,1.59,0,0,0,0,3.18" transform="translate(-8.948 -11.806)" fill="#fff" fill-rule="evenodd"/>
          <path id="Tracé_28" data-name="Tracé 28" d="M43.632,50.528l2.754-1.589A1.59,1.59,0,1,0,44.8,46.185l-2.754,1.589a1.59,1.59,0,0,0,1.589,2.754" transform="translate(-8.403 -9.365)" fill="#fff" fill-rule="evenodd"/>
          <path id="Tracé_29" data-name="Tracé 29" d="M36.906,42.341,38.5,39.588A1.59,1.59,0,1,0,35.742,38l-1.589,2.754a1.59,1.59,0,1,0,2.754,1.589" transform="translate(-6.914 -7.579)" fill="#fff" fill-rule="evenodd"/>
          <path id="Tracé_30" data-name="Tracé 30" d="M27.138,38.764v-3.18a1.59,1.59,0,0,0-3.18,0v3.18a1.59,1.59,0,0,0,3.18,0" transform="translate(-4.881 -6.925)" fill="#fff" fill-rule="evenodd"/>
          <path id="Tracé_31" data-name="Tracé 31" d="M16.534,40.751,14.945,38a1.59,1.59,0,1,0-2.754,1.589l1.589,2.754a1.59,1.59,0,1,0,2.754-1.589" transform="translate(-2.44 -7.579)" fill="#fff" fill-rule="evenodd"/>
          <path id="Tracé_32" data-name="Tracé 32" d="M8.347,47.777,5.594,46.187A1.59,1.59,0,1,0,4,48.941L6.758,50.53a1.59,1.59,0,1,0,1.589-2.754" transform="translate(-0.654 -9.366)" fill="#fff" fill-rule="evenodd"/>
          <path id="Tracé_33" data-name="Tracé 33" d="M116.851,54.661a1.3,1.3,0,0,1-1.295,1.295h-4.149l1.8,1.972a1.294,1.294,0,0,1-1.9,1.763l-.018-.02L107.9,55.955h-8.6l6.08,6.079,5.021-.233a1.295,1.295,0,0,1,.12,2.586l-2.664.123,2.933,2.933a1.295,1.295,0,1,1-1.8,1.859l-.028-.028-2.933-2.933-.124,2.664a1.294,1.294,0,0,1-1.292,1.234h-.061a1.3,1.3,0,0,1-1.233-1.354l.233-5.021-6.076-6.077V66.38l3.715,3.385A1.295,1.295,0,0,1,99.47,71.7l-.02-.018-1.971-1.8v4.149a1.295,1.295,0,1,1-2.59,0V69.883l-1.972,1.8a1.295,1.295,0,0,1-1.743-1.914L94.89,66.38v-8.6l-6.079,6.08.233,5.021a1.3,1.3,0,0,1-1.233,1.354l-.061,0a1.3,1.3,0,0,1-1.292-1.235l-.123-2.664L83.4,69.274a1.295,1.295,0,0,1-1.831-1.831L84.5,64.511l-2.664-.123a1.295,1.295,0,1,1,.12-2.586l5.021.233,6.079-6.078h-8.6L81.078,59.67a1.295,1.295,0,0,1-1.914-1.743l1.8-1.972H76.812a1.295,1.295,0,0,1,0-2.59H80.96l-1.8-1.972a1.294,1.294,0,0,1,1.913-1.743l3.385,3.715h8.6L86.98,47.289l-5.021.233-.061,0a1.295,1.295,0,0,1-.059-2.588l2.665-.123L81.57,41.878a1.294,1.294,0,0,1,1.83-1.831l2.935,2.934.123-2.664a1.323,1.323,0,0,1,1.353-1.233,1.294,1.294,0,0,1,1.233,1.353l-.233,5.021,6.079,6.079v-8.6l-3.715-3.385a1.294,1.294,0,0,1,1.743-1.913l1.972,1.8V35.289a1.295,1.295,0,1,1,2.59,0v4.148l1.971-1.8a1.295,1.295,0,0,1,1.744,1.913l-3.715,3.385v8.6l6.076-6.077-.233-5.021a1.295,1.295,0,0,1,2.586-.12l.124,2.665,2.934-2.935a1.295,1.295,0,0,1,1.831,1.831l-2.935,2.934,2.665.123a1.295,1.295,0,0,1-.059,2.588h-.061l-5.021-.233-6.077,6.076h8.6l3.385-3.715a1.295,1.295,0,0,1,1.914,1.743l-1.8,1.972h4.149a1.3,1.3,0,0,1,1.295,1.295" transform="translate(-15.385 -6.925)" fill="#fff"/>
          <path id="Tracé_34" data-name="Tracé 34" d="M50.076,23.478a1.587,1.587,0,0,0-.41-2.5L39.315,13.533H67.06a12.986,12.986,0,0,1,8.386,2.78,9.787,9.787,0,0,1,3.392,6.258,1.6,1.6,0,0,0,1.574,1.391,1.575,1.575,0,0,0,1.575-1.78,13.223,13.223,0,0,0-4.477-8.3A16.108,16.108,0,0,0,67.06,10.355H39.315L49.666,2.882A1.577,1.577,0,1,0,47.825.325L33.492,10.653a1.587,1.587,0,0,0-.335,2.222,1.57,1.57,0,0,0,.335.334L47.825,23.537a1.6,1.6,0,0,0,2.252-.059" transform="translate(-6.691 0)" fill="#fff"/>
          <path id="Tracé_35" data-name="Tracé 35" d="M64.773,90.284a1.587,1.587,0,0,0,.41,2.5l10.352,7.448H47.79A12.986,12.986,0,0,1,39.4,97.45a9.787,9.787,0,0,1-3.392-6.258A1.6,1.6,0,0,0,34.437,89.8a1.575,1.575,0,0,0-1.575,1.78,13.223,13.223,0,0,0,4.477,8.3,16.108,16.108,0,0,0,10.451,3.525H75.534L65.183,110.88a1.577,1.577,0,1,0,1.842,2.558L81.358,103.11a1.587,1.587,0,0,0,0-2.557L67.024,90.225a1.6,1.6,0,0,0-2.252.059" transform="translate(-6.691 -18.292)" fill="#fff"/>
        </g>
      </g>
    </g>
  </g>
</svg>
